<?xml version="1.0" standalone="no"?>
<!DOCTYPE svg PUBLIC "-//W3C//DTD SVG 20010904//EN"
 "http://www.w3.org/TR/2001/REC-SVG-20010904/DTD/svg10.dtd">
<svg version="1.0" xmlns="http://www.w3.org/2000/svg"
 width="450.000000pt" height="450.000000pt" viewBox="0 0 450.000000 450.000000"
 preserveAspectRatio="xMidYMid meet">

<g transform="translate(0.000000,450.000000) scale(0.100000,-0.100000)"
fill="#000000" stroke="none">
<path d="M647 2544 c-4 -4 -7 -17 -7 -28 1 -19 1 -20 11 -3 11 19 8 43 -4 31z"/>
<path d="M565 2315 c-14 -86 -18 -100 -36 -132 -11 -19 -19 -47 -19 -63 0 -16
-5 -32 -11 -35 -15 -10 -8 -55 13 -87 20 -29 85 -69 163 -99 47 -19 197 -38
165 -22 -8 5 -27 16 -42 27 -46 30 -31 76 24 76 44 0 68 31 68 91 0 31 -4 48
-10 44 -5 -3 -10 -20 -10 -37 0 -17 -2 -29 -5 -26 -5 5 -15 53 -17 86 -2 19
-16 14 -23 -9 -7 -21 -7 -21 -33 3 -14 12 -23 18 -19 13 3 -6 2 -17 -3 -24 -6
-11 -10 -9 -19 7 -9 17 -8 23 5 30 12 7 13 11 5 17 -7 4 -18 -1 -26 -11 -8
-11 -15 -14 -15 -8 0 18 -40 59 -58 59 -9 0 -17 5 -17 12 0 6 -4 15 -9 20 -5
5 -7 -1 -3 -14 3 -13 1 -23 -5 -23 -5 0 -12 9 -15 20 -3 11 -12 20 -20 20 -11
0 -13 7 -8 28 3 16 2 39 -3 53 -9 23 -10 22 -17 -16z m113 -135 c7 -11 9 -20
4 -20 -4 0 -13 9 -20 20 -7 11 -9 20 -4 20 4 0 13 -9 20 -20z m142 -100 c0 -5
-4 -10 -9 -10 -6 0 -13 5 -16 10 -3 6 1 10 9 10 9 0 16 -4 16 -10z"/>
<path d="M1901 2113 c6 -7 15 -10 20 -7 5 3 9 -2 9 -10 0 -9 6 -16 13 -16 16
-1 -34 -39 -51 -40 -7 0 -10 4 -7 10 4 7 -3 7 -20 0 -24 -9 -25 -8 -15 10 14
27 -7 27 -30 0 -9 -10 -25 -18 -36 -18 -10 1 -45 -15 -76 -35 -31 -20 -60 -37
-63 -37 -3 0 -47 -20 -98 -45 -52 -25 -102 -45 -112 -45 -10 0 -44 -9 -74 -19
-31 -11 -76 -25 -101 -31 -25 -7 -56 -20 -70 -30 -14 -9 -41 -21 -60 -25 -56
-13 -330 -10 -380 4 -25 7 -58 15 -75 17 -31 5 -41 9 -108 39 -56 24 -177 137
-240 224 -18 25 -33 37 -35 29 -5 -27 64 -147 125 -215 50 -56 79 -78 155
-116 140 -71 223 -90 398 -91 107 0 166 4 225 18 115 26 259 79 372 134 118
58 283 159 283 173 0 6 4 8 9 5 7 -5 85 44 101 63 3 3 14 11 24 17 34 18 31
35 -5 27 -23 -4 -35 -2 -43 9 -6 8 -19 15 -28 15 -14 0 -15 -3 -7 -14z"/>
<path d="M1470 2096 c0 -2 7 -7 16 -10 8 -3 12 -2 9 4 -6 10 -25 14 -25 6z"/>
<path d="M2360 2010 c0 -5 5 -10 11 -10 5 0 7 5 4 10 -3 6 -8 10 -11 10 -2 0
-4 -4 -4 -10z"/>
<path d="M2147 1940 c-16 -16 -34 -30 -41 -30 -6 0 -27 -15 -46 -33 -19 -19
-57 -46 -85 -62 -27 -15 -55 -31 -61 -36 -17 -14 -379 -195 -406 -203 -12 -4
-40 -12 -60 -17 -21 -5 -57 -14 -80 -20 -123 -31 -439 -51 -483 -31 -11 5 -40
15 -65 22 -118 32 -204 68 -247 103 -44 37 -121 87 -132 87 -26 0 -32 -80 -27
-335 2 -143 9 -294 14 -335 19 -140 25 -170 33 -176 5 -3 9 -16 9 -29 0 -32
43 -125 76 -164 36 -43 74 -61 128 -61 60 0 76 8 254 127 191 127 330 196 541
268 195 67 241 89 307 149 62 55 109 141 140 255 43 153 30 171 -73 102 -83
-55 -201 -109 -253 -116 -25 -4 -54 -10 -65 -15 -11 -5 -36 -11 -55 -14 -39
-5 -106 -20 -160 -33 -50 -13 -158 -4 -205 16 -23 10 -59 21 -80 25 -76 14
-116 27 -110 37 4 5 11 7 16 3 19 -11 277 -5 374 10 217 33 452 133 720 305
93 59 225 163 219 172 -4 6 -11 6 -19 -1 -9 -8 -14 -7 -18 5 -4 8 -2 14 2 12
5 -1 8 3 8 8 -1 6 -6 9 -11 7 -4 -1 -13 4 -20 13 -10 13 -15 11 -39 -15z"/>
<path d="M2261 1941 c-10 -6 -10 -10 -1 -16 7 -4 19 0 28 9 14 13 14 16 2 16
-8 0 -21 -4 -29 -9z"/>
<path d="M995 1889 c-33 -5 -75 -11 -94 -13 -74 -10 -40 -18 49 -13 113 7 162
16 154 28 -6 10 -25 10 -109 -2z"/>
</g>
</svg>
